<mxfile host="app.diagrams.net" modified="2022-03-09T12:25:28.531Z" agent="5.0 (Macintosh; Intel Mac OS X 10_15_7) AppleWebKit/537.36 (KHTML, like Gecko) Chrome/98.0.4758.109 Safari/537.36" etag="JGeQgB1ayk8uHxd_OQG1" version="16.6.5" type="github">
  <diagram id="p9cLhRyuhuqml9I6fExM" name="Page-1">
    <mxGraphModel dx="1255" dy="754" grid="1" gridSize="10" guides="1" tooltips="1" connect="1" arrows="1" fold="1" page="1" pageScale="1" pageWidth="827" pageHeight="1169" math="0" shadow="0">
      <root>
        <mxCell id="0" />
        <mxCell id="1" parent="0" />
        <mxCell id="z5xmtmfeOaF2hYiVbiwC-1" value="" style="rounded=0;whiteSpace=wrap;html=1;fillColor=#f5f5f5;fontColor=#333333;strokeColor=#666666;" vertex="1" parent="1">
          <mxGeometry x="122" y="659" width="600" height="70" as="geometry" />
        </mxCell>
        <mxCell id="z5xmtmfeOaF2hYiVbiwC-2" value="HDFS" style="rounded=0;whiteSpace=wrap;html=1;" vertex="1" parent="1">
          <mxGeometry x="150" y="674" width="100" height="40" as="geometry" />
        </mxCell>
        <mxCell id="z5xmtmfeOaF2hYiVbiwC-6" value="COS" style="rounded=0;whiteSpace=wrap;html=1;" vertex="1" parent="1">
          <mxGeometry x="260" y="674" width="100" height="40" as="geometry" />
        </mxCell>
        <mxCell id="z5xmtmfeOaF2hYiVbiwC-7" value="TDW" style="rounded=0;whiteSpace=wrap;html=1;" vertex="1" parent="1">
          <mxGeometry x="370" y="674" width="100" height="40" as="geometry" />
        </mxCell>
        <mxCell id="z5xmtmfeOaF2hYiVbiwC-8" value="REDIS" style="rounded=0;whiteSpace=wrap;html=1;" vertex="1" parent="1">
          <mxGeometry x="480" y="674" width="100" height="40" as="geometry" />
        </mxCell>
        <mxCell id="z5xmtmfeOaF2hYiVbiwC-9" value="BLADEDB" style="rounded=0;whiteSpace=wrap;html=1;" vertex="1" parent="1">
          <mxGeometry x="597" y="674" width="100" height="40" as="geometry" />
        </mxCell>
        <mxCell id="z5xmtmfeOaF2hYiVbiwC-10" value="&lt;b&gt;&lt;font style=&quot;font-size: 14px&quot;&gt;存储层&lt;/font&gt;&lt;/b&gt;" style="text;html=1;strokeColor=none;fillColor=none;align=center;verticalAlign=middle;whiteSpace=wrap;rounded=0;" vertex="1" parent="1">
          <mxGeometry x="20" y="679" width="60" height="30" as="geometry" />
        </mxCell>
        <mxCell id="z5xmtmfeOaF2hYiVbiwC-11" value="" style="rounded=0;whiteSpace=wrap;html=1;fontSize=14;fillColor=#f9f7ed;strokeColor=#36393d;" vertex="1" parent="1">
          <mxGeometry x="122" y="510" width="600" height="90" as="geometry" />
        </mxCell>
        <mxCell id="z5xmtmfeOaF2hYiVbiwC-12" value="&lt;b&gt;&lt;font style=&quot;font-size: 14px&quot;&gt;接入层&lt;/font&gt;&lt;/b&gt;" style="text;html=1;strokeColor=none;fillColor=none;align=center;verticalAlign=middle;whiteSpace=wrap;rounded=0;" vertex="1" parent="1">
          <mxGeometry x="22" y="550" width="60" height="30" as="geometry" />
        </mxCell>
        <mxCell id="z5xmtmfeOaF2hYiVbiwC-13" value="DQC" style="rounded=0;whiteSpace=wrap;html=1;fontSize=14;fillColor=#ffcccc;strokeColor=#36393d;" vertex="1" parent="1">
          <mxGeometry x="738" y="205" width="58" height="525" as="geometry" />
        </mxCell>
        <mxCell id="z5xmtmfeOaF2hYiVbiwC-14" value="监控&lt;br&gt;&amp;amp;&lt;br&gt;预警" style="rounded=0;whiteSpace=wrap;html=1;fontSize=14;fillColor=#f5f5f5;fontColor=#333333;strokeColor=#666666;" vertex="1" parent="1">
          <mxGeometry x="816" y="205" width="58" height="525" as="geometry" />
        </mxCell>
        <mxCell id="z5xmtmfeOaF2hYiVbiwC-15" value="离线特征" style="rounded=0;whiteSpace=wrap;html=1;fontSize=14;" vertex="1" parent="1">
          <mxGeometry x="150" y="517" width="250" height="33" as="geometry" />
        </mxCell>
        <mxCell id="z5xmtmfeOaF2hYiVbiwC-16" value="实时特征" style="rounded=0;whiteSpace=wrap;html=1;fontSize=14;" vertex="1" parent="1">
          <mxGeometry x="440" y="517" width="250" height="33" as="geometry" />
        </mxCell>
        <mxCell id="z5xmtmfeOaF2hYiVbiwC-17" value="画像元数据" style="rounded=0;whiteSpace=wrap;html=1;fontSize=14;fillColor=#f5f5f5;fontColor=#333333;strokeColor=#666666;" vertex="1" parent="1">
          <mxGeometry x="122" y="440" width="598" height="50" as="geometry" />
        </mxCell>
        <mxCell id="z5xmtmfeOaF2hYiVbiwC-18" value="&lt;span style=&quot;font-size: 14px&quot;&gt;&lt;b&gt;元数据&lt;/b&gt;&lt;/span&gt;" style="text;html=1;strokeColor=none;fillColor=none;align=center;verticalAlign=middle;whiteSpace=wrap;rounded=0;" vertex="1" parent="1">
          <mxGeometry x="22" y="450" width="60" height="30" as="geometry" />
        </mxCell>
        <mxCell id="z5xmtmfeOaF2hYiVbiwC-19" value="人群圈选" style="rounded=0;whiteSpace=wrap;html=1;fontSize=14;fillColor=#dae8fc;strokeColor=#6c8ebf;" vertex="1" parent="1">
          <mxGeometry x="122" y="365" width="120" height="60" as="geometry" />
        </mxCell>
        <mxCell id="z5xmtmfeOaF2hYiVbiwC-20" value="画像服务" style="rounded=0;whiteSpace=wrap;html=1;fontSize=14;fillColor=#dae8fc;strokeColor=#6c8ebf;" vertex="1" parent="1">
          <mxGeometry x="280" y="365" width="120" height="60" as="geometry" />
        </mxCell>
        <mxCell id="z5xmtmfeOaF2hYiVbiwC-22" value="画像洞察" style="rounded=0;whiteSpace=wrap;html=1;fontSize=14;fillColor=#dae8fc;strokeColor=#6c8ebf;" vertex="1" parent="1">
          <mxGeometry x="440" y="365" width="120" height="60" as="geometry" />
        </mxCell>
        <mxCell id="z5xmtmfeOaF2hYiVbiwC-23" value="&lt;span style=&quot;font-size: 14px&quot;&gt;&lt;b&gt;画像&lt;br&gt;能力&lt;/b&gt;&lt;/span&gt;" style="text;html=1;strokeColor=none;fillColor=none;align=center;verticalAlign=middle;whiteSpace=wrap;rounded=0;" vertex="1" parent="1">
          <mxGeometry x="22" y="375" width="60" height="30" as="geometry" />
        </mxCell>
        <mxCell id="z5xmtmfeOaF2hYiVbiwC-24" value="&lt;span style=&quot;font-size: 14px&quot;&gt;&lt;b&gt;画像&lt;br&gt;生态&lt;/b&gt;&lt;/span&gt;" style="text;html=1;strokeColor=none;fillColor=none;align=center;verticalAlign=middle;whiteSpace=wrap;rounded=0;" vertex="1" parent="1">
          <mxGeometry x="22" y="305" width="60" height="30" as="geometry" />
        </mxCell>
        <mxCell id="z5xmtmfeOaF2hYiVbiwC-25" value="" style="rounded=0;whiteSpace=wrap;html=1;fontSize=14;fillColor=#f5f5f5;fontColor=#333333;strokeColor=#666666;" vertex="1" parent="1">
          <mxGeometry x="120" y="290" width="600" height="60" as="geometry" />
        </mxCell>
        <mxCell id="z5xmtmfeOaF2hYiVbiwC-26" value="TAB" style="rounded=0;whiteSpace=wrap;html=1;" vertex="1" parent="1">
          <mxGeometry x="144" y="300" width="100" height="40" as="geometry" />
        </mxCell>
        <mxCell id="z5xmtmfeOaF2hYiVbiwC-27" value="灯塔" style="rounded=0;whiteSpace=wrap;html=1;" vertex="1" parent="1">
          <mxGeometry x="260" y="300" width="100" height="40" as="geometry" />
        </mxCell>
        <mxCell id="z5xmtmfeOaF2hYiVbiwC-28" value="PUSH中台" style="rounded=0;whiteSpace=wrap;html=1;" vertex="1" parent="1">
          <mxGeometry x="380" y="300" width="100" height="40" as="geometry" />
        </mxCell>
        <mxCell id="z5xmtmfeOaF2hYiVbiwC-29" value="增长中台" style="rounded=0;whiteSpace=wrap;html=1;" vertex="1" parent="1">
          <mxGeometry x="497" y="300" width="100" height="40" as="geometry" />
        </mxCell>
        <mxCell id="z5xmtmfeOaF2hYiVbiwC-30" value="AMS" style="rounded=0;whiteSpace=wrap;html=1;" vertex="1" parent="1">
          <mxGeometry x="610" y="300" width="100" height="40" as="geometry" />
        </mxCell>
        <mxCell id="z5xmtmfeOaF2hYiVbiwC-32" value="&lt;span style=&quot;font-size: 14px&quot;&gt;&lt;b&gt;垂直&lt;br&gt;场景&lt;/b&gt;&lt;/span&gt;" style="text;html=1;strokeColor=none;fillColor=none;align=center;verticalAlign=middle;whiteSpace=wrap;rounded=0;" vertex="1" parent="1">
          <mxGeometry x="22" y="220" width="60" height="30" as="geometry" />
        </mxCell>
        <mxCell id="z5xmtmfeOaF2hYiVbiwC-33" value="增长&lt;br&gt;人群定向" style="rounded=0;whiteSpace=wrap;html=1;fontSize=14;fillColor=#d5e8d4;strokeColor=#82b366;" vertex="1" parent="1">
          <mxGeometry x="120" y="205" width="100" height="60" as="geometry" />
        </mxCell>
        <mxCell id="z5xmtmfeOaF2hYiVbiwC-34" value="搜索推荐" style="rounded=0;whiteSpace=wrap;html=1;fontSize=14;fillColor=#d5e8d4;strokeColor=#82b366;" vertex="1" parent="1">
          <mxGeometry x="244" y="205" width="100" height="60" as="geometry" />
        </mxCell>
        <mxCell id="z5xmtmfeOaF2hYiVbiwC-35" value="ID-Mapping" style="rounded=0;whiteSpace=wrap;html=1;fontSize=14;fillColor=#dae8fc;strokeColor=#6c8ebf;" vertex="1" parent="1">
          <mxGeometry x="600" y="365" width="120" height="60" as="geometry" />
        </mxCell>
        <mxCell id="z5xmtmfeOaF2hYiVbiwC-36" value="定向实验" style="rounded=0;whiteSpace=wrap;html=1;fontSize=14;fillColor=#d5e8d4;strokeColor=#82b366;" vertex="1" parent="1">
          <mxGeometry x="376" y="205" width="100" height="60" as="geometry" />
        </mxCell>
        <mxCell id="z5xmtmfeOaF2hYiVbiwC-37" value="智能营销" style="rounded=0;whiteSpace=wrap;html=1;fontSize=14;fillColor=#d5e8d4;strokeColor=#82b366;" vertex="1" parent="1">
          <mxGeometry x="500" y="205" width="100" height="60" as="geometry" />
        </mxCell>
        <mxCell id="z5xmtmfeOaF2hYiVbiwC-38" value="。。。" style="rounded=0;whiteSpace=wrap;html=1;fontSize=14;fillColor=#d5e8d4;strokeColor=#82b366;" vertex="1" parent="1">
          <mxGeometry x="620" y="205" width="100" height="60" as="geometry" />
        </mxCell>
        <mxCell id="z5xmtmfeOaF2hYiVbiwC-39" value="离在线统一计算框架 - TX" style="rounded=0;whiteSpace=wrap;html=1;fontSize=14;" vertex="1" parent="1">
          <mxGeometry x="150" y="561" width="540" height="30" as="geometry" />
        </mxCell>
        <mxCell id="z5xmtmfeOaF2hYiVbiwC-40" value="SPARK" style="rounded=0;whiteSpace=wrap;html=1;fontSize=14;fillColor=#dae8fc;strokeColor=#6c8ebf;" vertex="1" parent="1">
          <mxGeometry x="122" y="610" width="298" height="40" as="geometry" />
        </mxCell>
        <mxCell id="z5xmtmfeOaF2hYiVbiwC-41" value="FLINK" style="rounded=0;whiteSpace=wrap;html=1;fontSize=14;fillColor=#dae8fc;strokeColor=#6c8ebf;" vertex="1" parent="1">
          <mxGeometry x="430" y="610" width="290" height="40" as="geometry" />
        </mxCell>
        <mxCell id="z5xmtmfeOaF2hYiVbiwC-42" value="&lt;b&gt;&lt;font style=&quot;font-size: 14px&quot;&gt;计算层&lt;/font&gt;&lt;/b&gt;" style="text;html=1;strokeColor=none;fillColor=none;align=center;verticalAlign=middle;whiteSpace=wrap;rounded=0;" vertex="1" parent="1">
          <mxGeometry x="22" y="615" width="60" height="30" as="geometry" />
        </mxCell>
      </root>
    </mxGraphModel>
  </diagram>
</mxfile>
